<?xml version="1.0" encoding="utf-8"?>
<svg version="1.1" id="Layer_1" xmlns="http://www.w3.org/2000/svg" xmlns:xlink="http://www.w3.org/1999/xlink" x="0px"
	y="0px" viewBox="0 0 16 16" style="enable-background:new 0 0 16 16;" xml:space="preserve">
	<style type="text/css">
		.st0 {
			fill: rgba(12, 12, 13);
		}

		@media (prefers-color-scheme: dark) {
			.st0 {
				fill: rgba(249, 249, 250);
			}
	</style>
	<path class="st0" d="M12.4,11l3.3-3.3c0.4-0.4,0.4-1,0-1.4s-1-0.4-1.4,0L11,9.6L7.7,6.3c-0.4-0.4-1-0.4-1.4,0s-0.4,1,0,1.4L9.6,11
	l-3.3,3.3c-0.4,0.4-0.4,1,0,1.4C6.5,15.9,6.7,16,7,16s0.5-0.1,0.7-0.3l3.3-3.3l3.3,3.3c0.2,0.2,0.5,0.3,0.7,0.3s0.5-0.1,0.7-0.3
	c0.4-0.4,0.4-1,0-1.4L12.4,11z" />
	<path class="st0" d="M6.1,8.6l-2,1l0.4-2.2c0-0.2,0-0.5-0.2-0.7L2.7,5.2l2.2-0.3c0.2,0,0.5-0.2,0.6-0.4l1-2l1,2
	C7.6,4.7,7.8,4.8,8,4.9l2.2,0.3L8.9,6.5c0.2,0.2,1.1,1,1.1,1l2.4-2.4c0.2-0.2,0.3-0.5,0.2-0.8C12.5,4.1,12.3,4,12,3.9L8.6,3.4
	l-1.5-3C7,0.1,6.7,0,6.5,0S5.9,0.1,5.8,0.4l-1.5,3L1,3.9C0.7,4,0.4,4.1,0.3,4.4c0,0.3,0,0.6,0.2,0.8L3,7.5l-0.6,3.3
	c0,0.3,0.1,0.6,0.3,0.7c0.2,0.2,0.5,0.2,0.8,0.1l3.7-2" />
</svg>