<svg xmlns="http://www.w3.org/2000/svg" width="28" height="28" viewBox="0 0 16 16">
  <defs>
    <style>
      .cls-1, .cls-2 {
        fill: rgba(249, 249, 250, 0.7);
      }

      .cls-1 {
        fill-rule: evenodd;
      }
    </style>
  </defs>
  <path id="Rounded_Rectangle_2" data-name="Rounded Rectangle 2" class="cls-1" d="M3,1H13a3,3,0,0,1,3,3v8a3,3,0,0,1-3,3H3a3,3,0,0,1-3-3V4A3,3,0,0,1,3,1ZM3,3H13a1,1,0,0,1,1,1v8a1,1,0,0,1-1,1H3a1,1,0,0,1-1-1V4A1,1,0,0,1,3,3Z"/>
  <rect class="cls-2" x="2" y="7" width="12" height="1"/>
  <rect class="cls-2" x="3" y="9" width="9" height="1"/>
  <rect class="cls-2" x="3" y="11" width="6" height="1"/>
  <rect class="cls-2" x="5" y="3" width="1" height="4"/>
  <rect class="cls-2" x="10" y="3" width="1" height="4"/>
</svg>
