<svg xmlns="http://www.w3.org/2000/svg" fill="currentColor" stroke="currentColor" xml:space="preserve" style="fill-rule:evenodd;clip-rule:evenodd;stroke-linejoin:round;stroke-miterlimit:2" viewBox="0 0 32 32"><path d="M27 5c1.097 0 2 .903 2 2v14c0 1.097-.903 2-2 2h-2v2c0 1.097-.903 2-2 2H5c-1.097 0-2-.903-2-2V11c0-1.097.903-2 2-2h2V7c0-1.097.903-2 2-2zm-4 20V11H5v14zm-5.292-9.292L15.414 18l2.294 2.293c.187.187.293.442.293.707 0 .549-.452 1.001-1.001 1.001-.265 0-.52-.106-.707-.293L14 19.414l-2.292 2.294a1 1 0 0 1-.708.293.998.998 0 0 1-.707-1.708L12.586 18l-2.293-2.292A1 1 0 0 1 9.999 15c0-.549.452-1.001 1.001-1.001.265 0 .52.106.708.293L14 16.586l2.293-2.293a.998.998 0 0 1 1.708.707c0 .265-.106.52-.293.708M27 21V7H9v2h14c1.097 0 2 .903 2 2v10z"/></svg>