<svg xmlns="http://www.w3.org/2000/svg" fill="currentColor" stroke="currentColor" xml:space="preserve" style="fill-rule:evenodd;clip-rule:evenodd;stroke-linejoin:round;stroke-miterlimit:2" viewBox="0 0 32 32"><path d="M27 9v14c0 1.097-.903 2-2 2H7c-1.097 0-2-.903-2-2V9c0-1.097.903-2 2-2h18c1.097 0 2 .903 2 2m-2 14V9H7v14zm-5.292-9.292L17.414 16l2.294 2.293c.187.187.293.442.293.707 0 .549-.452 1.001-1.001 1.001-.265 0-.52-.106-.707-.293L16 17.414l-2.292 2.294a1 1 0 0 1-.708.293h-.006a.996.996 0 0 1-.701-1.708L14.586 16l-2.293-2.292a1 1 0 1 1 1.415-1.416L16 14.586l2.293-2.293a.996.996 0 0 1 1.708.701V13c0 .265-.106.52-.293.708"/></svg>